# xmcd
#
# Track frame offsets: 
#        150
#        3425
#        12525
#        15255
#        19630
#        27177
#        33677
#        39495
#        44575
#        51332
#        53720
#        59330
#        67077
#        72395
#        85295
#
# Disc length: 1187 seconds
#
# Revision: 0
# Processed by: cddbd v1.5.1PL0 Copyright (c) Steve Scherf et al.
# Submitted via: ExactAudioCopy v0.95a5
#
DISCID=c804a10f
DTITLE=Winnie Winston - Pedal Steel Guitar
DYEAR=1975
DGENRE=Instrumental
TTITLE0=Red River Valley
TTITLE1=Streets of Laredo
TTITLE2=Harmonic Exercies
TTITLE3=Shenandoah
TTITLE4=Londonderry Air (simple)
TTITLE5=Bud's Bounce
TTITLE6=A Mighty Fortress
TTITLE7=Back-up (intros)
TTITLE8=Back-up (turns and fills)
TTITLE9=C6 intro
TTITLE10=Great Speckled Bird
TTITLE11=Londonderry Air (advanced)
TTITLE12=Nonbody Knows My Cares Rag
TTITLE13=She Thinks I Still Care
TTITLE14=Nashville To Bakersfield
EXTD=
EXTT0=
EXTT1=
EXTT2=
EXTT3=
EXTT4=
EXTT5=
EXTT6=
EXTT7=
EXTT8=
EXTT9=
EXTT10=
EXTT11=
EXTT12=
EXTT13=
EXTT14=
PLAYORDER=
